<?xml version="1.0" encoding="UTF-8"?>
<svg version="1.1" xmlns="http://www.w3.org/2000/svg" width="415" height="167">
<path d="M0 0 C0 38.61 0 77.22 0 117 C31.65266462 116.88128476 31.65266462 116.88128476 63.30517578 116.72973633 C69.43530273 116.71618652 69.43530273 116.71618652 72.30758667 116.71366882 C74.3081767 116.70907037 76.30875856 116.69853628 78.30929565 116.68327332 C81.34452703 116.66127931 84.37925152 116.65828314 87.41455078 116.65942383 C88.30169329 116.6486295 89.18883579 116.63783518 90.1028614 116.62671375 C96.02226246 116.65644637 100.25951617 117.62491401 104.875 121.625 C106.62453495 125.31846268 107.28194811 129.07800034 106 133 C103.34233081 136.62859246 100.50625808 138.71735893 96.05515671 139.55258369 C92.35428752 139.76040352 88.67802804 139.7775226 84.97412109 139.72875977 C83.55263992 139.73198215 82.13116263 139.73780404 80.70970154 139.74601746 C76.86446889 139.76050829 73.02028742 139.73766886 69.17518187 139.70715833 C65.14566033 139.68073031 61.11616892 139.68609079 57.08657837 139.6872406 C50.32284031 139.68443486 43.55950713 139.65843785 36.79589844 139.61743164 C28.98012411 139.57022102 21.16479251 139.55443887 13.34888589 139.5566383 C5.01902098 139.55866564 -3.31067369 139.5378411 -11.64048719 139.51029849 C-14.03763064 139.50391007 -16.43474655 139.50177574 -18.83189774 139.50058174 C-22.59953147 139.49756477 -26.36679462 139.47922161 -30.13430595 139.44908333 C-31.51576276 139.44033334 -32.89726223 139.43662718 -34.27874565 139.43836594 C-36.1662275 139.43984241 -38.05369247 139.4209844 -39.94107056 139.40113831 C-40.99664972 139.39611077 -42.05222889 139.39108324 -43.1397953 139.38590336 C-46.46130223 138.93776037 -48.31794316 137.98490634 -51 136 C-53.68773977 131.96839035 -53.67415933 128.73576122 -53 124 C-50.42668858 119.52053198 -48.98667534 118.99467014 -44 117 C-35.09 117 -26.18 117 -17 117 C-17 85.32 -17 53.64 -17 21 C-31.85 26.445 -31.85 26.445 -47 32 C-47.99 32 -48.98 32 -50 32 C-50.13489391 29.73078464 -50.23193995 27.4592933 -50.3125 25.1875 C-50.37050781 23.92292969 -50.42851562 22.65835938 -50.48828125 21.35546875 C-50 18 -50 18 -48.03588867 16.51367188 C-44.09241508 14.5474848 -40.06086526 12.9724169 -35.9375 11.42578125 C-35.06859131 11.09708542 -34.19968262 10.76838959 -33.30444336 10.42973328 C-31.47312299 9.73894846 -29.64082459 9.05075156 -27.80761719 8.36499023 C-25.00604179 7.31476488 -22.21002294 6.25061616 -19.4140625 5.18554688 C-17.63052968 4.51476995 -15.84668563 3.84481984 -14.0625 3.17578125 C-12.81231079 2.69773796 -12.81231079 2.69773796 -11.53686523 2.21003723 C-10.75255127 1.91940903 -9.9682373 1.62878082 -9.16015625 1.3293457 C-8.47574463 1.07192093 -7.79133301 0.81449615 -7.08618164 0.54927063 C-5 0 -5 0 0 0 Z " fill="#FF6507" transform="translate(181,14)"/>
<path d="M0 0 C2.58297781 2.18991597 4.48415844 3.96831688 6 7 C7.04523623 20.36531572 7.04523623 20.36531572 4.25 24.75 C1.5991295 27.4008705 -0.40008544 28.86261914 -4.18359375 29.1875 C-8.38682339 28.83783792 -11.15012088 28.46943077 -14 25.1875 C-17.12934018 20.20011409 -17.61459467 15.88254902 -17 10 C-16.04164312 6.44844214 -14.72536067 3.68002563 -12 1.125 C-7.68131351 -1.30426115 -4.75775269 -1.14842306 0 0 Z M-10.3125 4.375 C-12.88747515 8.38051691 -13.2022569 12.29030365 -13 17 C-12.31364841 19.72579633 -11.42267512 21.52349146 -10 24 C-7.20129973 25.39935013 -5.09501208 25.25265405 -2 25 C0.03667615 23.45493534 0.86073078 22.27853844 2 20 C2.48820393 14.58173669 2.8395156 9.6790312 0.375 4.75 C-1.92627964 2.78884364 -1.92627964 2.78884364 -5 2.4375 C-8.00346357 2.82264438 -8.00346357 2.82264438 -10.3125 4.375 Z " fill="#FF7520" transform="translate(205,94)"/>
<path d="M0 0 C2.61740284 1.94627391 3.72253135 3.16759405 4.75 6.25 C4.87375 7.11625 4.87375 7.11625 5 8 C3.35 8 1.7 8 0 8 C-0.66 6.68 -1.32 5.36 -2 4 C-4.31 4 -6.62 4 -9 4 C-9.33 5.65 -9.66 7.3 -10 9 C-9.40832031 9.24234375 -8.81664062 9.4846875 -8.20703125 9.734375 C0.72895704 13.52451685 0.72895704 13.52451685 4 17 C5.0625 19.9375 5.0625 19.9375 5 23 C2.89971854 26.37545234 1.79797116 27.73400961 -2 29 C-6.23275801 29.39931679 -8.53968575 29.23015713 -12.375 27.3125 C-15 25 -15 25 -15.875 22.25 C-15.91625 21.5075 -15.9575 20.765 -16 20 C-14.68 20 -13.36 20 -12 20 C-11.67 20.99 -11.34 21.98 -11 23 C-8.59454362 24.20272819 -7.05003047 24.10071472 -4.375 24.0625 C-3.55773437 24.05347656 -2.74046875 24.04445313 -1.8984375 24.03515625 C-1.27195312 24.02355469 -0.64546875 24.01195313 0 24 C0 22.02 0 20.04 0 18 C-0.66386719 17.82984375 -1.32773437 17.6596875 -2.01171875 17.484375 C-11.84542587 14.78548896 -11.84542587 14.78548896 -15 11 C-15.5625 7.5 -15.5625 7.5 -15 4 C-10.92469909 -1.34004947 -6.25520201 -1.63946827 0 0 Z " fill="#FF7622" transform="translate(264,94)"/>
<path d="M0 0 C5.94 0 11.88 0 18 0 C18 0.99 18 1.98 18 3 C13.38 3 8.76 3 4 3 C4 5.97 4 8.94 4 12 C7.63 12 11.26 12 15 12 C15.33 13.32 15.66 14.64 16 16 C12.04 16 8.08 16 4 16 C4 19.96 4 23.92 4 28 C2.68 28 1.36 28 0 28 C0 18.76 0 9.52 0 0 Z " fill="#FF741E" transform="translate(217,94)"/>
<path d="M0 0 C1.32 0 2.64 0 4 0 C4 9.24 4 18.48 4 28 C2.68 28 1.36 28 0 28 C0 18.76 0 9.52 0 0 Z " fill="#FF6405" transform="translate(239,94)"/>
</svg>
