<?xml version="1.0" encoding="UTF-8"?>
<svg version="1.1" xmlns="http://www.w3.org/2000/svg" width="474" height="199">
<path d="M0 0 C0 46.53 0 93.06 0 141 C38.18968822 140.84170561 38.18968822 140.84170561 76.37915039 140.63964844 C83.77429199 140.62158203 83.77429199 140.62158203 87.23899841 140.6182251 C89.65288747 140.61209271 92.06676447 140.59804489 94.48057556 140.57769775 C98.14229541 140.54838099 101.80326811 140.54437719 105.46508789 140.54589844 C106.53599954 140.531506 107.60691118 140.51711357 108.7102747 140.502285 C115.02191856 140.53734125 118.88365762 141.2047569 124 145 C126.70328624 149.01132797 127.7011114 152.192379 127 157 C124.21615417 162.07057633 121.50276231 165.1657459 116 167 C113.75853812 167.10065536 111.5141541 167.13940337 109.27044678 167.14717102 C108.58270211 167.15084771 107.89495745 167.1545244 107.18637204 167.1583125 C104.87651915 167.16934584 102.56671124 167.17319257 100.25683594 167.17700195 C98.60274615 167.18326686 96.94865776 167.18991369 95.29457092 167.19691467 C89.85784892 167.21795392 84.42112663 167.22831681 78.984375 167.23828125 C77.11264277 167.24232883 75.2409107 167.24644576 73.36917877 167.25063133 C64.57578577 167.26968257 55.78240117 167.28391384 46.9889915 167.2922433 C36.83916221 167.3020164 26.68955096 167.32833808 16.5397985 167.36874419 C8.69425641 167.39890526 0.84877682 167.41371216 -6.99682212 167.41702431 C-11.68247127 167.41937479 -16.36788747 167.42833491 -21.05347443 167.45348549 C-25.46285733 167.47677112 -29.87185397 167.48099753 -34.28128242 167.47072411 C-35.89736529 167.47022875 -37.5134672 167.47654904 -39.12949181 167.49028015 C-41.34095923 167.50801545 -43.55104281 167.5008865 -45.76251221 167.48774719 C-46.99842731 167.49013555 -48.23434242 167.4925239 -49.5077095 167.49498463 C-54.53238112 166.78280584 -58.24348675 164.75651325 -61.875 161.125 C-63.38092708 158.28047107 -63.87323933 156.23239714 -64 153 C-62.38764222 147.80462492 -60.52251212 145.01500808 -56 142 C-45.26273364 136.63136682 -32.00462874 141 -20 141 C-20.33 103.05 -20.66 65.1 -21 26 C-38.325 32.435 -38.325 32.435 -56 39 C-56.99 39 -57.98 39 -59 39 C-59 33.06 -59 27.12 -59 21 C-51.75228566 18.25670138 -44.50302464 15.51758395 -37.25095654 12.78582001 C-33.88367604 11.51721633 -30.51710896 10.24678499 -27.15209961 8.97216797 C-23.90529117 7.74240061 -20.65670488 6.51744614 -17.40682411 5.29582214 C-15.56261277 4.60114946 -13.72028167 3.90149179 -11.87797546 3.20178223 C-10.75703995 2.78134644 -9.63610443 2.36091064 -8.48120117 1.92773438 C-7.49302902 1.55467163 -6.50485687 1.18160889 -5.48674011 0.79724121 C-3 0 -3 0 0 0 Z " fill="#FF6304" transform="translate(206,16)"/>
<path d="M0 0 C3.03765199 2.50159575 4.750531 5.25159299 6 9 C6.14648082 11.26763574 6.2209626 13.54032366 6.25 15.8125 C6.27578125 17.01519531 6.3015625 18.21789062 6.328125 19.45703125 C5.8614327 24.49619687 4.24964975 27.75035025 0.6875 31.3125 C-3.59835945 34.00362105 -6.60088724 34.22091254 -11.5625 33.4375 C-15.94753408 31.60375848 -17.31171432 29.87429406 -20 26 C-21.14330513 22.57008462 -21.20381651 19.8013584 -21.25 16.1875 C-21.28867188 14.38345703 -21.28867188 14.38345703 -21.328125 12.54296875 C-20.85583796 7.44339324 -19.26449307 4.19964727 -15.5625 0.6875 C-10.34192822 -2.75043751 -5.69177848 -2.25236154 0 0 Z M-15 7 C-16.46230215 9.92460429 -16.20908727 12.55652824 -16.25 15.8125 C-16.27578125 17.03582031 -16.3015625 18.25914062 -16.328125 19.51953125 C-15.97873546 23.22555603 -15.23569119 25.06429871 -13 28 C-9.86128812 29.56935594 -7.46144178 29.35201103 -4 29 C-0.33554464 26.24501034 0.86915322 24.75121447 1.6640625 20.1875 C1.67723073 18.79166805 1.66361697 17.3953598 1.625 16 C1.64433594 15.30132812 1.66367188 14.60265625 1.68359375 13.8828125 C1.64662611 9.96424217 1.11285472 8.14444644 -1.31640625 5.03515625 C-3.92448655 2.72432353 -3.92448655 2.72432353 -7.5625 2.4375 C-11.48101711 3.07871189 -12.62558226 3.89499219 -15 7 Z " fill="#FF721B" transform="translate(236,113)"/>
<path d="M0 0 C2.5625 2.375 2.5625 2.375 4 5 C4 6.32 4 7.64 4 9 C1.625 8.75 1.625 8.75 -1 8 C-2.1640625 5.953125 -2.1640625 5.953125 -3 4 C-4.47906892 3.97310784 -5.95827483 3.95365379 -7.4375 3.9375 C-8.26121094 3.92589844 -9.08492188 3.91429688 -9.93359375 3.90234375 C-11.99163938 3.76732652 -11.99163938 3.76732652 -13 5 C-13.04063832 6.66617115 -13.042721 8.33388095 -13 10 C-12.41992188 10.24234375 -11.83984375 10.4846875 -11.2421875 10.734375 C-5.57351466 13.16647886 -0.41362684 15.58637316 4 20 C5.23123647 23.40957791 5.09300302 24.7628423 3.75 28.1875 C1.54970773 31.723684 -0.11080105 32.76880827 -4.125 33.8125 C-8.97166875 34.04701623 -12.65113485 33.11801017 -17 31 C-19.0625 29.0625 -19.0625 29.0625 -20 27 C-20 25.68 -20 24.36 -20 23 C-18.35 23 -16.7 23 -15 23 C-14.67 24.65 -14.34 26.3 -14 28 C-10.37 28 -6.74 28 -3 28 C-2.34 26.35 -1.68 24.7 -1 23 C-4.08594882 19.33218878 -7.86393839 18.55704793 -12.30859375 17.16015625 C-15.33776184 15.85440455 -16.95411025 14.57753628 -19 12 C-19.72894044 9.25575364 -19.55956449 6.7749831 -19 4 C-14.36501436 -2.77420978 -7.02701544 -2.84014096 0 0 Z " fill="#FF731D" transform="translate(306,113)"/>
<path d="M0 0 C6.93 0 13.86 0 21 0 C21 1.32 21 2.64 21 4 C15.39 4 9.78 4 4 4 C4 7.63 4 11.26 4 15 C8.95 15 13.9 15 19 15 C19 16.32 19 17.64 19 19 C14.05 19 9.1 19 4 19 C4 23.95 4 28.9 4 34 C2.68 34 1.36 34 0 34 C0 22.78 0 11.56 0 0 Z " fill="#FF6608" transform="translate(249,112)"/>
<path d="M0 0 C1.65 0 3.3 0 5 0 C5 11.22 5 22.44 5 34 C3.35 34 1.7 34 0 34 C0 22.78 0 11.56 0 0 Z " fill="#FF6A0F" transform="translate(275,112)"/>
</svg>
